<svg width="55" height="38" viewBox="0 0 55 38" fill="none" xmlns="http://www.w3.org/2000/svg">
<path d="M34.55 1.43C41.98 4.36 46.91 12.04 46.36 20.04C46.28 24.52 44.18 27.94 41.92 31.62C45.25 32.52 48.47 32.99 51.91 33.23C50.71 30.43 47 27.65 49.81 24.71C51.96 26.74 53.77 28.78 55 31.51V34.42C53.3 35.46 52.08 36.73 49.95 36.6C45.5 36.48 40.94 34.81 36.82 33.2C27.79 29.47 19.18 24.51 11.35 18.67C6.84 15.14 2.39 11.68 0 6.31V3.55C2.92 0.86 7.24 0.62 10.56 2.68L10.58 5.28C8.02 5 5.45 5.06 2.88 4.81C4.68 7.81 6.79 10.35 9.24 12.84C10.94 9.95 12.38 7.18 14.9 4.9C20.11 0.0899997 28 -1.32 34.55 1.43Z" fill="white"/>
<path d="M34.55 36.31C31.73 37.33 29.03 38.2 25.98 37.8C17.33 37.22 9.9 30.24 8.89 21.59C11.0619 22.8215 13.1403 24.1829 15.2178 25.5436C17.4925 27.0336 19.7662 28.5229 22.16 29.84C24.2237 30.9989 26.339 32.0648 28.4548 33.1309C30.5016 34.1623 32.5488 35.1938 34.55 36.31Z" fill="white"/>
</svg>
